<?xml version="1.0" encoding="utf-8"?>
<!-- Generator: Adobe Illustrator 16.0.0, SVG Export Plug-In . SVG Version: 6.00 Build 0)  -->
<!DOCTYPE svg PUBLIC "-//W3C//DTD SVG 1.1//EN" "http://www.w3.org/Graphics/SVG/1.1/DTD/svg11.dtd">
<svg version="1.1" id="Layer_1" xmlns="http://www.w3.org/2000/svg" xmlns:xlink="http://www.w3.org/1999/xlink" x="0px" y="0px"
	 width="307.555px" height="307.555px" viewBox="0 0 307.555 307.555" enable-background="new 0 0 307.555 307.555"
	 xml:space="preserve">
<g>
	<g>
		<path fill="#FFFFFF" d="M292.194,14.134v277.555H14.64V14.134H292.194 M307.194-0.866H-0.36v307.555h307.555V-0.866L307.194-0.866
			z"/>
	</g>
	<g>
		<path fill="#FFFFFF" stroke="#FFFFFF" stroke-miterlimit="10" d="M148.414,194.537l-40.203-101.66l-11.517-0.942v-9.318h38.947
			v9.318l-13.506,1.047l27.64,72.241l3.979,13.61h0.628l30.99-85.852l-13.819-1.047v-9.318h39.156v9.318l-11.517,0.942
			l-45.753,121.134c-2.931,7.678-6.736,14.203-11.411,19.578c-4.678,5.374-11.517,8.062-20.521,8.062
			c-1.466,0-3.246-0.157-5.34-0.472s-3.63-0.646-4.606-0.994l1.466-10.47c0.837,0.139,2.181,0.296,4.03,0.471
			c1.849,0.174,3.157,0.262,3.927,0.262c5.513,0,9.875-1.92,13.087-5.758c3.209-3.84,6.036-8.831,8.48-14.972"/>
	</g>
</g>
</svg>
