<?xml version="1.0" encoding="utf-8"?>
<!-- Generator: Adobe Illustrator 16.0.0, SVG Export Plug-In . SVG Version: 6.00 Build 0)  -->
<!DOCTYPE svg PUBLIC "-//W3C//DTD SVG 1.1//EN" "http://www.w3.org/Graphics/SVG/1.1/DTD/svg11.dtd">
<svg version="1.1" id="Layer_1" xmlns="http://www.w3.org/2000/svg" xmlns:xlink="http://www.w3.org/1999/xlink" x="0px" y="0px"
	 width="219.46px" height="46px" viewBox="0 0 219.46 46" enable-background="new 0 0 219.46 46" xml:space="preserve">
<rect x="14.069" y="11.072" fill-rule="evenodd" clip-rule="evenodd" fill="#FFFFFF" stroke="#FFFFFF" stroke-width="10" stroke-linecap="round" stroke-linejoin="round" stroke-miterlimit="10" width="23.701" height="23.701"/>
<path fill-rule="evenodd" clip-rule="evenodd" fill="#FFFFFF" d="M14.777,34.313c-1.832,0-3.664,0.007-5.496-0.007
	c-0.253-0.001-0.686,0.153-0.725-0.157c-0.046-0.367,0.406-0.234,0.644-0.296c2.508-0.636,4.32-2.202,5.757-4.258
	c3.185-4.553,6.363-9.112,9.54-13.671c1.083-1.555,2.356-2.895,4.107-3.725c1.058-0.5,2.187-0.677,3.335-0.685
	c3.572-0.022,7.145-0.009,10.717-0.009c0.092,0,0.184-0.006,0.275,0.005c0.153,0.017,0.366-0.007,0.356,0.219
	c-0.007,0.158-0.179,0.182-0.318,0.197c-0.575,0.061-1.118,0.245-1.642,0.472c-1.884,0.818-3.305,2.176-4.453,3.834
	c-3.151,4.549-6.295,9.103-9.438,13.657c-1.064,1.54-2.324,2.863-4.048,3.688c-1.027,0.492-2.121,0.719-3.251,0.73
	C18.35,34.327,16.563,34.313,14.777,34.313z"/>
<text transform="matrix(1 0 0 1 51.2856 30.2627)" fill="#FFFFFF" font-family="'FuturistFixedWidth-Regular'" font-size="27.5131">azurys</text>
</svg>
