<?xml version="1.0" encoding="utf-8"?>
<!-- Generator: Adobe Illustrator 16.0.0, SVG Export Plug-In . SVG Version: 6.00 Build 0)  -->
<!DOCTYPE svg PUBLIC "-//W3C//DTD SVG 1.1//EN" "http://www.w3.org/Graphics/SVG/1.1/DTD/svg11.dtd">
<svg version="1.1" id="Layer_1" xmlns="http://www.w3.org/2000/svg" xmlns:xlink="http://www.w3.org/1999/xlink" x="0px" y="0px"
	 width="219.46px" height="46px" viewBox="0 0 219.46 46" enable-background="new 0 0 219.46 46" xml:space="preserve">
<text transform="matrix(1 0 0 1 51.2856 30.2637)" fill="#FFFFFF" font-family="'FuturistFixedWidth-Regular'" font-size="27.5131">azurys</text>
<g>
	<path fill="#FFFFFF" d="M42.724,13.21v22.037c0,0-0.486,3.777-4.58,3.986c-4.095,0.21-22.528,0-22.528,0s-4.652-0.22-4.722-4.798
		h10.362c0,0,3.489,0.829,7.478-4.286l9.411-13.791C38.144,16.359,40.696,13.14,42.724,13.21z"/>
	<path fill="#FFFFFF" d="M11.012,32.792V10.755c0,0,0.487-3.777,4.582-3.987c4.094-0.21,22.528,0,22.528,0s4.651,0.222,4.721,4.798
		H32.482c0,0-3.491-0.828-7.478,4.288l-9.411,13.79C15.594,29.643,13.041,32.862,11.012,32.792z"/>
</g>
</svg>
